<svg width="67" height="38" viewBox="0 0 67 38" fill="none" xmlns="http://www.w3.org/2000/svg">
<g clip-path="url(#clip0_12_1300)">
<path d="M61.348 33.0186C53.3464 40.9346 38.6471 39.1834 33.7977 28.6603C33.777 28.6151 33.7915 28.5938 33.8409 28.5963L33.9757 28.6025C34.0218 28.6049 34.0573 28.5873 34.082 28.5496C35.3198 26.6935 36.4823 24.7922 37.5692 22.8459C37.9401 22.1818 38.3418 21.5411 38.7745 20.9237C38.7798 20.9162 38.7873 20.9105 38.796 20.9073C38.8046 20.9041 38.8142 20.9036 38.8232 20.9058C38.8321 20.9081 38.8401 20.913 38.8463 20.9199C38.8524 20.9269 38.8562 20.9356 38.8573 20.9447C39.2455 24.5381 40.8998 27.237 43.8205 29.0415C45.7538 30.2356 48.1199 30.7669 50.3759 30.4852C53.8149 30.0564 56.4553 28.3274 58.2972 25.2981C58.579 24.8348 58.8012 24.3458 58.9635 23.8309C58.9669 23.8199 58.9678 23.8081 58.9658 23.7965C58.9638 23.7851 58.9593 23.7741 58.9522 23.7648C58.9453 23.7554 58.9362 23.7478 58.9257 23.7426C58.9151 23.7375 58.9035 23.7349 58.8918 23.735L48.3053 23.7522C48.2777 23.7522 48.2514 23.7414 48.2319 23.722C48.2125 23.7025 48.2014 23.6763 48.2014 23.6489L48.2447 16.7573C48.2451 16.7337 48.2546 16.7112 48.2712 16.6946C48.2879 16.6781 48.3104 16.6687 48.3337 16.6687C51.863 16.6687 55.4145 16.7081 58.9573 16.6417C61.6117 16.5916 64.2641 16.5946 66.9145 16.6503C66.9272 16.6503 66.9396 16.6554 66.9486 16.6647C66.9576 16.6739 66.9627 16.6864 66.9627 16.6995V36.5911C66.9627 36.6074 66.9561 36.623 66.9446 36.6346C66.933 36.646 66.9173 36.6525 66.9009 36.6525H61.5545C61.5213 36.6525 61.4896 36.6395 61.4662 36.6161C61.4427 36.5929 61.4296 36.5613 61.4296 36.5283L61.4333 33.0542C61.4333 32.9739 61.4049 32.962 61.348 33.0186Z" fill="white"/>
<path fill-rule="evenodd" clip-rule="evenodd" d="M35.2551 9.44378C38.9319 2.5551 52.8981 -6.47812 64.6758 6.86127L59.2985 11.4114C55.5455 7.83707 51.5014 7.33311 47.4918 8.47552C47.3024 8.55283 47.115 8.6366 46.9294 8.72682C45.4077 9.46591 43.9392 11.0486 42.8365 12.4026C40.2808 15.5387 38.37 18.5759 36.0506 22.2622C35.6941 22.8288 35.328 23.4106 34.9485 24.0105C33.5986 26.1445 32.1527 28.07 30.6108 29.7867C25.4845 35.4929 17.0254 37.1801 10.0114 34.0319C5.52164 32.0151 2.82557 28.6197 1.14316 24.1531C0.102309 21.3935 -0.298208 18.324 0.23705 15.4168C0.576995 13.5722 0.902106 12.0128 1.74764 10.4104C2.65622 8.68501 3.81821 6.95349 5.20766 5.60689C8.05454 2.84604 11.789 0.971879 15.7818 0.687801C17.3385 0.576301 18.8929 0.624673 20.4446 0.832915C21.2122 0.934737 21.9578 1.16441 22.7092 1.39587C22.8109 1.42719 22.9126 1.45854 23.0146 1.4896C26.4994 2.55582 29.0854 4.61692 31.3958 7.36054C31.4296 7.40072 31.4283 7.43967 31.3921 7.47737L14.118 25.3116C14.1013 25.3285 14.0803 25.3406 14.057 25.3462C14.0339 25.3519 14.0096 25.3509 13.9869 25.3435C11.8458 24.6254 10.135 22.0096 9.54535 20.0051C9.53134 19.9559 9.54205 19.9132 9.57749 19.8772L20.9082 8.29886C20.9135 8.29342 20.9174 8.28675 20.9193 8.27942C20.9213 8.27209 20.9213 8.26435 20.9195 8.2569C20.9176 8.24946 20.9139 8.24254 20.9087 8.23676C20.9035 8.23099 20.897 8.22655 20.8897 8.22384C16.2157 6.55873 10.9373 8.61737 8.49832 12.9019C7.10805 15.3427 6.77594 17.9378 7.50197 20.6876C8.46742 24.345 11.6505 27.4465 15.4444 28.07C19.1232 28.6746 22.2722 27.1982 24.8535 24.8112L32.7828 12.8872C33.6517 11.5947 34.5062 10.4089 35.3565 9.33049C35.3227 9.36815 35.289 9.40591 35.2551 9.44378ZM51.3524 1.47169C49.6082 1.21043 47.9897 1.21627 46.4601 1.48695C47.9454 1.20455 49.5529 1.18804 51.3524 1.47169Z" fill="white"/>
</g>
<defs>
<clipPath id="clip0_12_1300">
<rect width="67" height="38" fill="white"/>
</clipPath>
</defs>
</svg>
